# AST/ASF file generated using VICON BodyLanguage
# -----------------------------------------------
:version 1.10
:name VICON
:units
  mass 1.0
  length 0.45
  angle deg
:documentation
   .ast/.asf automatically generated from VICON data using
   VICON BodyBuilder and BodyLanguage model FoxedUp or BRILLIANT.MOD
:root
   order TX TY TZ RX RY RZ
   axis XYZ
   position 0 0 0  
   orientation 0 0 0 
:bonedata
  begin
     id 1 
     name lhipjoint
     direction 0.822369 -0.411937 0.392449 
     length 3.8167 
     axis 0 0 0  XYZ
  end
  begin
     id 2 
     name lfemur
     direction 0.34202 -0.939693 0  
     length 6.16791  
     axis 0 0 20  XYZ
    dof rx ry rz
    limits (-160.0 20.0)
           (-70.0 70.0)
           (-60.0 70.0)
  end
  begin
     id 3 
     name ltibia
     direction 0.34202 -0.939693 0   
     length 7.07101   
     axis 0 0 20   XYZ
    dof rx
    limits (-10.0 170.0)
  end
  begin
     id 4 
     name lfoot
     direction 0.028254 -0.0776273 0.996582   
     length 1.66799   
     axis -90 7.62852e-016 20   XYZ
    dof rx rz
    limits (-45.0 90.0)
           (-70.0 20.0)
  end
  begin
     id 5 
     name ltoes
     direction 1.53483e-011 -4.21688e-011 1   
     length 0.851674   
     axis -90 7.62852e-016 20   XYZ
    dof rx
    limits (-90.0 20.0)
  end
  begin
     id 6 
     name rhipjoint
     direction -0.822466 -0.411836 0.392353   
     length 3.81764  
     axis 0 0 0  XYZ 
  end
  begin
     id 7 
     name rfemur
     direction -0.34202 -0.939693 0   
     length 6.28636   
     axis 0 0 -20   XYZ
    dof rx ry rz
    limits (-160.0 20.0)
           (-70.0 70.0)
           (-70.0 60.0)
  end
  begin
     id 8 
     name rtibia
     direction -0.34202 -0.939693 0   
     length 6.85621   
     axis 0 0 -20   XYZ
    dof rx
    limits (-10.0 170.0)
 end
 begin
     id 9 
     name rfoot
     direction -0.0553036 -0.151945 0.98684   
     length 1.57293  
     axis -90 -7.62852e-016 -20   XYZ
    dof rx rz
    limits (-45.0 90.0)
           (-20.0 70.0)
  end
  begin
     id 10 
     name rtoes
     direction -1.53592e-011 -4.21964e-011 1   
     length 0.802812   
     axis -90 -7.62852e-016 -20   XYZ
    dof rx
    limits (-90.0 20.0)
  end
  begin
     id 11 
     name lowerback
     direction 0.00654913 0.996475 -0.0836396   
     length 1.97212   
     axis 0 0 0   XYZ
    dof rx ry rz
    limits (-20.0 45.0)
           (-30.0 30.0)
           (-30.0 30.0)
  end
  begin
     id 12 
     name upperback
     direction 0.0111875 0.994527 0.103877   
     length 1.89704   
     axis 0 0 0   XYZ
    dof rx ry rz
    limits (-20.0 45.0)
           (-30.0 30.0)
           (-30.0 30.0)
  end
  begin
     id 13 
     name thorax
     direction 0.00473652 0.989004 0.147814   
     length 1.94516   
     axis 0 0 0   XYZ
    dof rx ry rz
    limits (-20.0 45.0)
           (-30.0 30.0)
           (-30.0 30.0)
  end
  begin
     id 14 
     name lowerneck
     direction -0.00925808 0.999011 0.0434791   
     length 1.81771   
     axis 0 0 0   XYZ
    dof rx ry rz
    limits (-20.0 45.0)
           (-30.0 30.0)
           (-30.0 30.0)
  end
  begin
     id 15 
     name upperneck
     direction 0.00451595 0.964412 -0.264365   
     length 1.80434   
     axis 0 0 0   XYZ
    dof rx ry rz
    limits (-20.0 45.0)
           (-30.0 30.0)
           (-30.0 30.0)
  end
  begin
     id 16
     name head
     direction -0.00110849 0.995756 -0.0920241  
     length 1.84006  
     axis 0 0 0   XYZ
    dof rx ry rz
    limits (-20.0 45.0)
           (-30.0 30.0)
           (-30.0 30.0)
  end
  begin
     id 17 
     name lclavicle
     direction 0.921253 0.385213 0.0538957  
     length 3.67415  
     axis 0 0 0   XYZ
    dof ry rz
    limits (-20.0 10.0)
           (0.0 20.0)
  end
  begin
     id 18 
     name lhumerus
     direction 1 -4.48961e-011 6.73441e-028   
     length 4.32712   
     axis 180 -30 -90   XYZ
    dof rx ry rz
    limits (-60.0 90.0)
           (-90.0 90.0)
           (-90.0 90.0)
  end
  begin
     id 19
     name lradius
     direction 1 -4.48985e-011 -9.53507e-028   
     length 3.28587   
     axis 180 -30 -90   XYZ
    dof rx
    limits (-10.0 170.0)
  end
  begin
     id 20
     name lwrist
     direction 1 -4.48951e-011 -4.67472e-027   
     length 1.64293   
     axis 1.65735e-015 90 90   XYZ
    dof ry
    limits (-180.0 0.0)
 end
  begin
     id 21 
     name lhand
     direction 1 -4.48946e-011 -9.34945e-027   
     length 0.433158   
     axis 5.96574e-015 90 90   XYZ
    dof rx rz
    limits (-90.0 90.0)
           (-45.0 45.0)
  end
  begin
     id 22 
     name lfingers
     direction 1 -4.48882e-011 -1.86989e-026   
     length 0.349224   
     axis 1.19315e-014 90 90   XYZ
    dof rx
    limits (0.0 90.0)
  end
  begin
     id 23
     name lthumb
     direction 0.707107 -6.3493e-011 0.707107   
     length 0.501417   
     axis -90 45 2.85299e-015   XYZ
    dof rx rz
    limits (-45.0 45.0)
           (-45.0 45.0)
  end
  begin
     id 24 
     name rclavicle
     direction -0.884378 0.46502 -0.0403866   
     length 3.50218  
     axis 0 0 0   XYZ 
    dof ry rz
    limits (-10.0 20.0)
           (-20.0 0.0)
  end
  begin
     id 25 
     name rhumerus
     direction -1 -4.48964e-011 1.58188e-027  
     length 4.29104   
     axis 180 30 90   XYZ
    dof rx ry rz
    limits (-90.0 60.0)
           (-90.0 90.0)
           (-90.0 90.0)
  end
  begin
     id 26 
     name rradius
     direction -1 -4.48978e-011 -1.9722e-027   
     length 3.2272   
     axis 180 30 90   XYZ
    dof rx
    limits (-10.0 170.0)
  end
  begin
     id 27 
     name rwrist
     direction -1 -4.48969e-011 -4.67472e-027   
     length 1.6136   
     axis 1.65735e-015 -90 -90   XYZ
    dof ry
    limits (-180.0 0.0)
  end
  begin
     id 28
     name rhand
     direction -1 -4.48846e-011 -9.34945e-027   
     length 0.543623   
     axis 5.96574e-015 -90 -90   XYZ
    dof rx rz
    limits (-90.0 90.0)
           (-45.0 45.0)
  end
  begin
     id 29
     name rfingers
     direction -1 -4.49074e-011 -1.86989e-026   
     length 0.438283   
     axis 1.19315e-014 -90 -90   XYZ
    dof rx
    limits (0.0 90.0)
  end
  begin
     id 30
     name rthumb
     direction -0.707107 -6.34834e-011 0.707107   
     length 0.629289   
     axis -90 -45 -2.85299e-015   XYZ
    dof rx rz
    limits (-45.0 45.0)
           (-45.0 45.0)
  end
:hierarchy
  begin
    root lhipjoint rhipjoint lowerback
    lhipjoint lfemur
    lfemur ltibia
    ltibia lfoot
    lfoot ltoes
    rhipjoint rfemur
    rfemur rtibia
    rtibia rfoot
    rfoot rtoes
    lowerback upperback
    upperback thorax
    thorax lowerneck lclavicle rclavicle
    lowerneck upperneck
    upperneck head
    lclavicle lhumerus
    lhumerus lradius
    lradius lwrist
    lwrist lhand lthumb
    lhand lfingers
    rclavicle rhumerus
    rhumerus rradius
    rradius rwrist
    rwrist rhand rthumb
    rhand rfingers
  end

#!OML:ASF H:\GeneralSubjects\Female5\Project 1\Capture day 1\Session 1\Female5.ASF
:FULLY-SPECIFIED
:DEGREES
137
root -26.3008 16.3391 4.8381 -24.0687 83.4841 -35.8811
lowerback 5.82841 1.2933 2.74136
upperback -10.0569 2.52654 0.861954
thorax -14.2439 1.08768 -1.06325
lowerneck -14.7816 1.81415 3.40814
upperneck 43.4326 4.69224 -1.08855
head 19.2793 3.06425 0.0646285
rclavicle -1.39149e-014 -1.44367e-014
rhumerus -46.4135 28.0408 -91.9538
rradius 45.5041
rwrist -10.8968
rhand -24.2254 -20.4152
rfingers 7.12502
rthumb 2.2597 -50.383
lclavicle -1.39149e-014 -1.44367e-014
lhumerus -37.7064 -13.9814 87.0557
lradius 44.8704
lwrist -7.56127
lhand -25.6349 30.5238
lfingers 7.12502
lthumb 0.898336 60.5016
rfemur 1.01842 27.8885 35.1758
rtibia -11.3271
rfoot -12.1697 -31.2481
rtoes -18.8623
lfemur -2.34139 -36.3683 -25.693
ltibia -5.68855
lfoot -41.0751 6.82428
ltoes -17.9554
138
root -26.3075 16.3309 4.82731 -24.4151 83.5621 -36.3014
lowerback 5.9085 1.30124 2.78934
upperback -10.0384 2.54358 0.853238
thorax -14.2701 1.08868 -1.10491
lowerneck -14.8352 1.77724 3.2858
upperneck 43.4124 4.6215 -0.984825
head 19.2693 3.02767 0.123028
rclavicle 4.1869e-015 -5.14355e-015
rhumerus -46.2857 28.2852 -91.869
rradius 45.9177
rwrist -10.5091
rhand -24.2089 -20.0192
rfingers 7.12502
rthumb 2.27557 -49.9868
lclavicle 4.1869e-015 -5.14355e-015
lhumerus -37.9234 -14.6631 87.9646
lradius 44.8228
lwrist -8.15375
lhand -25.4362 29.8153
lfingers 7.12502
lthumb 1.09029 59.7923
rfemur 1.01624 27.8047 35.0996
rtibia -11.515
rfoot -12.7117 -31.1892
rtoes -17.9285
lfemur -2.66173 -36.1001 -25.6407
ltibia -5.44518
lfoot -40.7141 7.06886
ltoes -18.9426
139
root -26.3131 16.326 4.81629 -25.0991 83.5851 -37.0458
lowerback 5.97275 1.31931 2.86917
upperback -10.011 2.58063 0.868837
thorax -14.2748 1.09796 -1.14035
lowerneck -14.8926 1.72911 3.18293
upperneck 43.387 4.53928 -0.915134
head 19.2591 2.98483 0.158889
rclavicle -2.79727e-014 -2.87492e-014
rhumerus -46.0963 28.4137 -91.7006
rradius 46.2155
rwrist -10.1433
rhand -24.2818 -19.5034
rfingers 7.12502
rthumb 2.20516 -49.4718
lclavicle -2.79727e-014 -2.87492e-014
lhumerus -38.0852 -15.1559 88.7195
lradius 44.5322
lwrist -8.67157
lhand -25.3575 29.2075
lfingers 7.12502
lthumb 1.16631 59.184
rfemur 0.947821 27.7501 35.0641
rtibia -11.5777
rfoot -12.827 -31.16
rtoes -17.8969
lfemur -2.95021 -35.94 -25.5229
ltibia -5.18728
lfoot -40.4267 7.64295
ltoes -20.6188
140
root -26.3168 16.3246 4.80577 -26.0035 83.5682 -37.9969
lowerback 6.01716 1.34345 2.95212
upperback -9.98553 2.62886 0.905445
thorax -14.2698 1.11422 -1.15576
lowerneck -14.9233 1.66299 3.11354
upperneck 43.3621 4.44364 -0.901248
head 19.245 2.93562 0.158408
rclavicle 1.42193e-014 3.42904e-015
rhumerus -45.8851 28.4604 -91.4883
rradius 46.4227
rwrist -9.87629
rhand -24.3005 -19.1084
rfingers 7.12502
rthumb 2.18718 -49.077
lclavicle 1.42193e-014 3.42904e-015
lhumerus -38.218 -15.4332 89.3068
lradius 44.0532
lwrist -8.96997
lhand -25.2369 28.8598
lfingers 7.12502
lthumb 1.28277 58.8357
rfemur 0.831415 27.7158 35.0588
rtibia -11.5346
rfoot -12.5943 -31.1477
rtoes -18.6047
lfemur -3.22273 -35.7612 -25.3544
ltibia -4.91689
lfoot -40.0506 8.53443
ltoes -23.013
141
root -26.3182 16.326 4.7964 -26.9556 83.5353 -38.9795
lowerback 6.03728 1.36863 3.0125
upperback -9.96251 2.67648 0.953081
thorax -14.2537 1.13392 -1.14556
lowerneck -14.9212 1.57924 3.07134
upperneck 43.3408 4.33406 -0.933399
head 19.2264 2.88035 0.127395
rclavicle 1.93489e-014 1.85615e-014
rhumerus -45.6671 28.4691 -91.2662
rradius 46.5587
rwrist -9.77636
rhand -24.206 -18.9891
rfingers 7.12502
rthumb 2.2784 -48.9566
lclavicle 1.93489e-014 1.85615e-014
lhumerus -38.3172 -15.4955 89.7101
lradius 43.4226
lwrist -8.99687
lhand -24.9132 28.8428
lfingers 7.12502
lthumb 1.59536 58.8165
rfemur 0.692674 27.6892 35.0671
rtibia -11.4082
rfoot -12.19 -31.1456
rtoes -19.7769
lfemur -3.49081 -35.4352 -25.1706
ltibia -4.63426
lfoot -39.4673 9.54422
ltoes -25.7132
142
root -26.3169 16.3293 4.78837 -27.7809 83.5147 -39.8165
lowerback 6.03074 1.39051 3.02815
upperback -9.93701 2.71239 1.00032
thorax -14.2195 1.1533 -1.10782
lowerneck -14.9026 1.48401 3.03177
upperneck 43.3246 4.2126 -0.977378
head 19.2065 2.81992 0.0876957
rclavicle 9.18913e-015 4.25523e-015
rhumerus -45.4403 28.4809 -91.0529
rradius 46.6389
rwrist -9.86437
rhand -24.0178 -19.1701
rfingers 7.12502
rthumb 2.46014 -49.1356
lclavicle 9.18913e-015 4.25523e-015
lhumerus -38.3708 -15.3601 89.9226
lradius 42.6632
lwrist -8.83951
lhand -24.3523 29.1677
lfingers 7.12502
lthumb 2.13716 59.1367
rfemur 0.56782 27.6556 35.072
rtibia -11.2375
rfoot -11.8257 -31.1682
rtoes -21.1795
lfemur -3.75273 -34.9007 -25.0213
ltibia -4.33857
lfoot -38.6869 10.3377
ltoes -28.0486
143
root -26.3133 16.3334 4.78145 -28.4069 83.5227 -40.4394
lowerback 6.00848 1.40674 2.99
upperback -9.91293 2.73207 1.04095
thorax -14.1792 1.17044 -1.044
lowerneck -14.8735 1.38474 2.98204
upperneck 43.3125 4.08557 -1.01176
head 19.1854 2.75739 0.0534204
rclavicle -3.29237e-015 2.43511e-015
rhumerus -45.2062 28.5244 -90.8587
rradius 46.6721
rwrist -10.0855
rhand -23.7777 -19.607
rfingers 7.12502
rthumb 2.69204 -49.5697
lclavicle -3.29237e-015 2.43511e-015
lhumerus -38.3727 -15.0508 89.9467
lradius 41.791
lwrist -8.68987
lhand -23.7704 29.4335
lfingers 7.12502
lthumb 2.69911 59.3962
rfemur 0.465677 27.6073 35.0595
rtibia -11.0423
rfoot -11.3406 -31.2138
rtoes -22.849
lfemur -4.00608 -34.1845 -24.9301
ltibia -4.03483
lfoot -37.8011 10.7673
ltoes -29.7451
144
root -26.308 16.3377 4.77528 -28.9434 83.5618 -40.9636
lowerback 5.97771 1.41493 2.91246
upperback -9.88988 2.73468 1.07628
thorax -14.1366 1.18333 -0.960808
lowerneck -14.8419 1.29399 2.91803
upperneck 43.2971 3.96727 -1.02415
head 19.1605 2.69888 0.0341352
rclavicle 3.40953e-015 -3.6845e-015
rhumerus -44.9485 28.6199 -90.6791
rradius 46.6608
rwrist -10.3368
rhand -23.5478 -20.0944
rfingers 7.12502
rthumb 2.9141 -50.0542
lclavicle 3.40953e-015 -3.6845e-015
lhumerus -38.305 -14.625 89.7927
lradius 40.831
lwrist -8.74439
lhand -23.1535 29.6092
lfingers 7.12502
lthumb 3.29485 59.5635
rfemur 0.370527 27.5368 35.0282
rtibia -10.8153
rfoot -11.2536 -31.2464
rtoes -23.9675
lfemur -4.24923 -33.334 -24.8862
ltibia -3.73126
lfoot -36.8868 10.8245
ltoes -30.8835
145
root -26.3018 16.3414 4.76933 -29.5567 83.626 -41.5619
lowerback 5.94205 1.41363 2.82382
upperback -9.86536 2.72236 1.10977
thorax -14.09 1.19017 -0.870648
lowerneck -14.8195 1.21736 2.84123
upperneck 43.2677 3.86585 -1.02061
head 19.129 2.64616 0.0280998
rclavicle -2.27706e-014 -2.64694e-014
rhumerus -44.6493 28.786 -90.5007
rradius 46.6174
rwrist -10.5063
rhand -23.3617 -20.3627
rfingers 7.12502
rthumb 3.09381 -50.32
lclavicle -2.27706e-014 -2.64694e-014
lhumerus -38.1429 -14.1553 89.4768
lradius 39.8175
lwrist -9.14448
lhand -22.5504 29.5972
lfingers 7.12502
lthumb 3.87732 59.5417
rfemur 0.254578 27.4404 34.9832
rtibia -10.5372
rfoot -11.0296 -31.2962
rtoes -25.38
lfemur -4.48948 -32.3874 -24.864
ltibia -3.42156
lfoot -35.9541 10.498
ltoes -31.3468
146
root -26.2957 16.3439 4.76307 -30.3872 83.6962 -42.3853
lowerback 5.91078 1.40444 2.75739
upperback -9.84265 2.70285 1.14514
thorax -14.0478 1.19127 -0.789777
lowerneck -14.8119 1.14988 2.76282
upperneck 43.2219 3.77763 -1.02232
head 19.0918 2.59641 0.0222258
rclavicle 1.58313e-014 2.1183e-014
rhumerus -44.3038 29.0295 -90.3091
rradius 46.5764
rwrist -10.5091
rhand -23.2268 -20.2286
rfingers 7.12502
rthumb 3.22406 -50.184
lclavicle 1.58313e-014 2.1183e-014
lhumerus -37.8554 -13.699 89.0159
lradius 38.777
lwrist -9.94149
lhand -22.0263 29.342
lfingers 7.12502
lthumb 4.38338 59.2766
rfemur 0.0641357 27.3285 34.9306
rtibia -10.1547
rfoot -11.0774 -31.293
rtoes -26.2016
lfemur -4.74334 -31.3781 -24.8234
ltibia -3.10055
lfoot -34.9824 9.87472
ltoes -31.4382
